<svg xmlns="http://www.w3.org/2000/svg" viewBox="0 0 960 420" fill="none">
  <rect width="960" height="420" rx="32" fill="#F6F2EB"/>
  <rect x="88" y="82" width="380" height="256" rx="24" fill="#FFFFFF" stroke="#DDD4C7" stroke-width="2"/>
  <rect x="510" y="82" width="362" height="256" rx="24" fill="#FFFFFF" stroke="#DDD4C7" stroke-width="2"/>
  <path d="M146 267L284 169L394 202" stroke="#665646" stroke-width="8" stroke-linecap="round" stroke-linejoin="round"/>
  <path d="M146 267L180 128" stroke="#85725D" stroke-width="8" stroke-linecap="round"/>
  <circle cx="146" cy="267" r="12" fill="#1F1915"/>
  <circle cx="284" cy="169" r="12" fill="#A6937C"/>
  <circle cx="394" cy="202" r="12" fill="#C7BAA7"/>
  <path d="M566 264L680 168L772 230" stroke="#665646" stroke-width="8" stroke-linecap="round" stroke-linejoin="round"/>
  <rect x="564" y="122" width="48" height="48" rx="10" fill="#85725D"/>
  <rect x="622" y="122" width="48" height="48" rx="10" fill="#A6937C"/>
  <rect x="680" y="122" width="48" height="48" rx="10" fill="#C7BAA7"/>
  <rect x="738" y="122" width="48" height="48" rx="10" fill="#DDD4C7"/>
  <rect x="564" y="180" width="48" height="48" rx="10" fill="#DDD4C7"/>
  <rect x="622" y="180" width="48" height="48" rx="10" fill="#C7BAA7"/>
  <rect x="680" y="180" width="48" height="48" rx="10" fill="#A6937C"/>
  <rect x="738" y="180" width="48" height="48" rx="10" fill="#85725D"/>
  <text x="88" y="52" fill="#352D25" font-family="Georgia, serif" font-size="24" font-weight="700">Linear algebra as geometry</text>
  <text x="88" y="372" fill="#665646" font-family="Arial, sans-serif" font-size="16">Vector in, transform, matrix structure, projected output</text>
</svg>

